# xmcd CD database file
#
# Track frame offsets:
#	150
#	13942
#	25665
#	40876
#	58314
#	75578
#	91084
#	107878
#	123414
#	138775
#	152038
#
# Disc length: 2206 seconds
#
# Revision: 0
# Processed by: cddbd v1.5.2PL0 Copyright (c) Steve Scherf et al.
# Submitted via: CDex 1.51
#
DISCID=85089c0b
DTITLE=Orla Fallon  - Celtic Christmas
DYEAR=2010
DGENRE=New Age
TTITLE0=Joy To The World
TTITLE1=I Saw Three Ships
TTITLE2=Do You Hear What I Hear? (w/ Meav)
TTITLE3=It Came Upon A Midnight Clear - The First Noel
TTITLE4=Little Drummer Boy (w/ Vince Gill)
TTITLE5=Silent Night (w/ David Archuleta)
TTITLE6=A' Soalin (Soul Cake)
TTITLE7=Have Yourself A Merry Little Christmas
TTITLE8=Bells Of Christmas
TTITLE9=Away In A Manger (w/ Anuna)
TTITLE10=Emmanuel
EXTD=YEAR: 2010
EXTT0=
EXTT1=
EXTT2=
EXTT3=
EXTT4=
EXTT5=
EXTT6=
EXTT7=
EXTT8=
EXTT9=
EXTT10=
PLAYORDER=
